<?xml version="1.0" encoding="iso-8859-1"?>
<!-- Uploaded to: SVG Repo, www.svgrepo.com, Generator: SVG Repo Mixer Tools -->
<!DOCTYPE svg PUBLIC "-//W3C//DTD SVG 1.1//EN" "http://www.w3.org/Graphics/SVG/1.1/DTD/svg11.dtd">
<svg fill="#000000" version="1.1" id="Capa_1" xmlns="http://www.w3.org/2000/svg" xmlns:xlink="http://www.w3.org/1999/xlink" 
	 width="800px" height="800px" viewBox="0 0 58.333 58.333"
	 xml:space="preserve">
<g>
	<g>
		<rect x="18.75" y="11.545" width="31.597" height="3.299"/>
		<path d="M20.667,16.793c0-0.2-0.106-0.35-0.259-0.431c-0.162-0.095-0.347-0.124-0.65-0.124c-0.25,0-0.509,0.022-0.64,0.045v2.149
			c0.11,0.017,0.292,0.033,0.536,0.033c0.436,0,0.701-0.072,0.86-0.198c0.137-0.11,0.227-0.266,0.227-0.468
			c0-0.279-0.186-0.469-0.435-0.535v-0.007C20.554,17.163,20.667,16.985,20.667,16.793z M19.61,16.612
			c0.038-0.008,0.1-0.015,0.21-0.015c0.224,0,0.351,0.088,0.351,0.254c0,0.162-0.136,0.27-0.399,0.27H19.61V16.612z M19.8,18.099
			c-0.084,0-0.142,0-0.191-0.006v-0.617h0.168c0.248,0,0.445,0.086,0.445,0.304C20.223,18.011,20.025,18.099,19.8,18.099z"/>
		<path d="M21.053,21.193c0-0.386-0.143-0.656-0.37-0.825c-0.207-0.155-0.48-0.235-0.899-0.235c-0.247,0-0.485,0.02-0.666,0.049
			v2.146c0.119,0.017,0.305,0.032,0.562,0.032c0.428,0,0.782-0.092,1.012-0.282C20.901,21.899,21.053,21.611,21.053,21.193z
			 M19.785,21.976c-0.06,0-0.13,0-0.173-0.011v-1.431c0.042-0.009,0.116-0.02,0.224-0.02c0.429,0,0.695,0.24,0.695,0.695
			C20.53,21.73,20.235,21.979,19.785,21.976z"/>
		<path d="M22.216,21.174c0.055,0,0.094,0.006,0.132,0.012v-0.463c-0.036-0.006-0.059-0.01-0.104-0.01
			c-0.155,0-0.347,0.097-0.429,0.331h-0.012l-0.02-0.293h-0.422c0.01,0.137,0.013,0.29,0.013,0.524v1.064h0.494v-0.805
			c0-0.037,0.003-0.077,0.009-0.109C21.911,21.271,22.034,21.174,22.216,21.174z"/>
		<path d="M23.446,22.18l0.029,0.158h0.445c-0.02-0.087-0.026-0.233-0.026-0.382V21.4c0-0.376-0.166-0.688-0.695-0.688
			c-0.29,0-0.506,0.08-0.617,0.143l0.091,0.319c0.104-0.064,0.275-0.121,0.438-0.121c0.242,0,0.288,0.121,0.288,0.208v0.021
			c-0.562,0-0.932,0.194-0.932,0.606c0,0.253,0.192,0.487,0.514,0.487c0.188,0,0.35-0.067,0.454-0.195L23.446,22.18L23.446,22.18z
			 M23.417,21.761c0,0.029-0.003,0.06-0.009,0.084c-0.033,0.101-0.137,0.181-0.256,0.181c-0.11,0-0.195-0.062-0.195-0.188
			c0-0.188,0.201-0.25,0.46-0.25V21.761z"/>
		<path d="M25.729,22.338v-0.929c0-0.041,0.006-0.09,0.015-0.125c0.036-0.094,0.114-0.172,0.23-0.172
			c0.159,0,0.234,0.132,0.234,0.363v0.863h0.48v-0.935c0-0.478-0.231-0.691-0.536-0.691c-0.118,0-0.215,0.028-0.302,0.077
			c-0.078,0.046-0.146,0.11-0.208,0.196h-0.006c-0.068-0.166-0.227-0.273-0.436-0.273c-0.27,0-0.413,0.149-0.48,0.252h-0.009
			l-0.02-0.214h-0.418c0.006,0.144,0.013,0.309,0.013,0.507v1.08h0.48v-0.925c0-0.042,0.003-0.088,0.02-0.127
			c0.029-0.077,0.104-0.175,0.23-0.175c0.159,0,0.23,0.136,0.23,0.334v0.892h0.481V22.338z"/>
		<path d="M26.975,21.887c0,0.253,0.192,0.487,0.514,0.487c0.188,0,0.35-0.068,0.454-0.195h0.009l0.029,0.158h0.445
			c-0.02-0.087-0.026-0.233-0.026-0.382V21.4c0-0.376-0.166-0.688-0.695-0.688c-0.289,0-0.507,0.08-0.617,0.143l0.091,0.319
			c0.104-0.064,0.276-0.121,0.438-0.121c0.243,0,0.288,0.121,0.288,0.208v0.021C27.346,21.281,26.975,21.475,26.975,21.887z
			 M27.924,21.589v0.172c0,0.029-0.003,0.06-0.01,0.084c-0.032,0.101-0.136,0.181-0.256,0.181c-0.11,0-0.196-0.062-0.196-0.188
			C27.462,21.651,27.664,21.589,27.924,21.589z"/>
		<polygon points="20.148,27.525 20.148,25.415 19.742,25.415 19.181,25.674 19.262,26.045 19.664,25.854 19.671,25.854 
			19.671,27.525 		"/>
		<polygon points="21.949,27.525 21.949,25.415 21.544,25.415 20.982,25.674 21.064,26.045 21.466,25.854 21.472,25.854 
			21.472,27.525 		"/>
		<path d="M22.962,25.919c-0.168,0-0.288,0.123-0.288,0.298c0,0.169,0.116,0.295,0.285,0.295c0.178,0,0.292-0.126,0.292-0.295
			C23.248,26.038,23.134,25.919,22.962,25.919z"/>
		<path d="M22.962,26.967c-0.168,0-0.288,0.123-0.288,0.298c0,0.17,0.116,0.296,0.285,0.296c0.178,0,0.292-0.126,0.292-0.296
			C23.248,27.087,23.134,26.967,22.962,26.967z"/>
		<path d="M24.248,27.561c0.536,0,0.799-0.451,0.799-1.1c0-0.578-0.224-1.081-0.785-1.081c-0.545,0-0.801,0.48-0.801,1.094
			C23.462,27.07,23.703,27.561,24.248,27.561z M24.255,25.754c0.198,0,0.299,0.246,0.299,0.714c0,0.48-0.104,0.72-0.295,0.72
			c-0.189,0-0.305-0.23-0.305-0.714C23.954,25.979,24.076,25.754,24.255,25.754z"/>
		<path d="M26.05,27.561c0.536,0,0.798-0.451,0.798-1.1c0-0.578-0.224-1.081-0.786-1.081c-0.545,0-0.802,0.48-0.802,1.094
			C25.265,27.07,25.504,27.561,26.05,27.561z M26.057,25.754c0.198,0,0.298,0.246,0.298,0.714c0,0.48-0.104,0.72-0.295,0.72
			c-0.188,0-0.305-0.23-0.305-0.714C25.755,25.979,25.878,25.754,26.057,25.754z"/>
		<polygon points="29.512,27.525 29.512,25.415 29.105,25.415 28.544,25.674 28.624,26.045 29.027,25.854 29.035,25.854 
			29.035,27.525 		"/>
		<path d="M31.547,27.525v-0.503h0.25v-0.369h-0.25v-1.238H30.94l-0.795,1.285v0.321h0.935v0.503H31.547z M30.601,26.652
			l0.003-0.007l0.28-0.46c0.07-0.134,0.13-0.256,0.197-0.393h0.01c-0.007,0.137-0.013,0.267-0.013,0.393v0.467H30.601z"/>
		<path d="M32.327,25.919c-0.169,0-0.289,0.123-0.289,0.298c0,0.169,0.117,0.295,0.285,0.295c0.179,0,0.293-0.126,0.293-0.295
			C32.611,26.038,32.498,25.919,32.327,25.919z"/>
		<path d="M32.327,26.967c-0.169,0-0.289,0.123-0.289,0.298c0,0.17,0.117,0.296,0.285,0.296c0.179,0,0.293-0.126,0.293-0.296
			C32.611,27.087,32.498,26.967,32.327,26.967z"/>
		<path d="M33.125,26.983l-0.27,0.244v0.297h1.496v-0.406h-0.799v-0.007l0.194-0.162c0.31-0.273,0.562-0.555,0.562-0.913
			c0-0.379-0.261-0.658-0.738-0.658c-0.283,0-0.533,0.097-0.69,0.218l0.141,0.35c0.11-0.081,0.27-0.172,0.451-0.172
			c0.244,0,0.345,0.136,0.345,0.308C33.814,26.331,33.588,26.568,33.125,26.983z"/>
		<path d="M34.625,26.474c0.003,0.597,0.242,1.087,0.788,1.087c0.536,0,0.799-0.451,0.799-1.1c0-0.578-0.224-1.081-0.785-1.081
			C34.879,25.38,34.625,25.86,34.625,26.474z M35.719,26.467c0,0.48-0.105,0.72-0.295,0.72c-0.188,0-0.307-0.23-0.307-0.714
			c0-0.494,0.124-0.72,0.302-0.72C35.619,25.754,35.719,26,35.719,26.467z"/>
		<polygon points="38.874,27.525 38.874,25.415 38.468,25.415 37.907,25.674 37.988,26.045 38.391,25.854 38.397,25.854 
			38.397,27.525 		"/>
		<polygon points="39.689,27.525 40.21,27.525 41.081,25.728 41.081,25.415 39.591,25.415 39.591,25.821 40.558,25.821 
			40.558,25.828 		"/>
		<path d="M41.689,26.967c-0.169,0-0.29,0.123-0.29,0.298c0,0.17,0.117,0.296,0.286,0.296c0.179,0,0.292-0.126,0.292-0.296
			C41.974,27.087,41.86,26.967,41.689,26.967z"/>
		<path d="M41.689,25.919c-0.169,0-0.29,0.123-0.29,0.298c0,0.169,0.117,0.295,0.286,0.295c0.179,0,0.292-0.126,0.292-0.295
			C41.974,26.038,41.86,25.919,41.689,25.919z"/>
		<path d="M43.555,27.525v-0.503h0.25v-0.369h-0.25v-1.238h-0.606l-0.796,1.285v0.321h0.937v0.503H43.555z M42.611,26.652
			l0.003-0.007l0.279-0.46c0.07-0.134,0.13-0.256,0.198-0.393H43.1c-0.006,0.137-0.013,0.267-0.013,0.393v0.467H42.611z"/>
		<path d="M43.986,26.474c0.004,0.597,0.244,1.087,0.79,1.087c0.535,0,0.798-0.451,0.798-1.1c0-0.578-0.224-1.081-0.785-1.081
			C44.245,25.38,43.986,25.86,43.986,26.474z M45.081,26.467c0,0.48-0.104,0.72-0.295,0.72c-0.189,0-0.305-0.23-0.305-0.714
			c0-0.494,0.122-0.72,0.302-0.72C44.981,25.754,45.081,26,45.081,26.467z"/>
		<rect x="19.021" y="30.295" width="31.597" height="3.3"/>
		<polygon points="19.451,44.424 19.532,44.795 19.935,44.603 19.942,44.603 19.942,46.275 20.419,46.275 20.419,44.166 
			20.013,44.166 		"/>
		<polygon points="21.252,44.424 21.333,44.795 21.737,44.603 21.743,44.603 21.743,46.275 22.22,46.275 22.22,44.166 
			21.814,44.166 		"/>
		<path d="M23.234,45.718c-0.169,0-0.289,0.122-0.289,0.297c0,0.17,0.117,0.296,0.285,0.296c0.179,0,0.292-0.126,0.292-0.296
			C23.519,45.837,23.405,45.718,23.234,45.718z"/>
		<path d="M23.234,44.669c-0.169,0-0.289,0.123-0.289,0.298c0,0.169,0.117,0.296,0.285,0.296c0.179,0,0.292-0.127,0.292-0.296
			C23.519,44.788,23.405,44.669,23.234,44.669z"/>
		<path d="M24.531,44.13c-0.545,0-0.801,0.48-0.801,1.094c0.003,0.596,0.243,1.087,0.789,1.087c0.535,0,0.799-0.45,0.799-1.1
			C25.318,44.634,25.094,44.13,24.531,44.13z M24.528,45.938c-0.188,0-0.305-0.229-0.305-0.714c0-0.494,0.123-0.721,0.302-0.721
			c0.198,0,0.299,0.246,0.299,0.716C24.824,45.697,24.721,45.938,24.528,45.938z"/>
		<path d="M26.333,44.13c-0.546,0-0.801,0.48-0.801,1.094c0.003,0.596,0.243,1.087,0.789,1.087c0.535,0,0.798-0.45,0.798-1.1
			C27.119,44.634,26.895,44.13,26.333,44.13z M26.33,45.938c-0.188,0-0.305-0.229-0.305-0.714c0-0.494,0.123-0.721,0.301-0.721
			c0.198,0,0.299,0.246,0.299,0.716C26.626,45.697,26.522,45.938,26.33,45.938z"/>
		<polygon points="28.815,44.424 28.895,44.795 29.298,44.603 29.304,44.603 29.304,46.275 29.781,46.275 29.781,44.166 
			29.376,44.166 		"/>
		<path d="M31.817,44.166h-0.607l-0.796,1.284v0.32h0.937v0.504h0.467v-0.504h0.25v-0.368h-0.25V44.166z M31.35,44.935v0.468h-0.479
			l0.004-0.007l0.279-0.461c0.071-0.133,0.13-0.256,0.197-0.393h0.01C31.356,44.679,31.35,44.809,31.35,44.935z"/>
		<path d="M32.596,45.718c-0.169,0-0.288,0.122-0.288,0.297c0,0.17,0.116,0.296,0.286,0.296c0.178,0,0.292-0.126,0.292-0.296
			C32.882,45.837,32.769,45.718,32.596,45.718z"/>
		<path d="M32.596,44.669c-0.169,0-0.288,0.123-0.288,0.298c0,0.169,0.116,0.296,0.286,0.296c0.178,0,0.292-0.127,0.292-0.296
			C32.882,44.788,32.769,44.669,32.596,44.669z"/>
		<path d="M33.824,45.862l0.195-0.162c0.309-0.273,0.562-0.554,0.562-0.912c0-0.379-0.261-0.658-0.74-0.658
			c-0.283,0-0.533,0.097-0.688,0.218l0.139,0.35c0.11-0.08,0.27-0.172,0.452-0.172c0.243,0,0.344,0.137,0.344,0.309
			c-0.002,0.247-0.227,0.484-0.692,0.898l-0.27,0.244v0.298h1.497v-0.406h-0.798V45.862L33.824,45.862z"/>
		<path d="M35.698,44.13c-0.546,0-0.802,0.48-0.802,1.094c0.003,0.596,0.242,1.087,0.788,1.087c0.536,0,0.799-0.45,0.799-1.1
			C36.483,44.634,36.259,44.13,35.698,44.13z M35.694,45.938c-0.188,0-0.306-0.229-0.306-0.714c0-0.494,0.124-0.721,0.304-0.721
			c0.197,0,0.298,0.246,0.298,0.716C35.989,45.697,35.886,45.938,35.694,45.938z"/>
		<polygon points="38.177,44.424 38.257,44.795 38.66,44.603 38.667,44.603 38.667,46.275 39.144,46.275 39.144,44.166 
			38.739,44.166 		"/>
		<polygon points="39.862,44.571 40.829,44.571 40.829,44.577 39.959,46.275 40.481,46.275 41.351,44.478 41.351,44.166 
			39.862,44.166 		"/>
		<path d="M41.959,45.718c-0.169,0-0.29,0.122-0.29,0.297c0,0.17,0.118,0.296,0.286,0.296c0.179,0,0.293-0.126,0.293-0.296
			C42.245,45.837,42.13,45.718,41.959,45.718z"/>
		<path d="M41.959,44.669c-0.169,0-0.29,0.123-0.29,0.298c0,0.169,0.118,0.296,0.286,0.296c0.179,0,0.293-0.127,0.293-0.296
			C42.245,44.788,42.13,44.669,41.959,44.669z"/>
		<path d="M43.826,44.166h-0.606l-0.796,1.284v0.32h0.936v0.504h0.467v-0.504h0.25v-0.368h-0.25V44.166z M43.359,44.935v0.468
			h-0.478l0.004-0.007l0.279-0.461c0.071-0.133,0.13-0.256,0.198-0.393h0.009C43.365,44.679,43.359,44.809,43.359,44.935z"/>
		<path d="M45.059,44.13c-0.544,0-0.8,0.48-0.8,1.094c0.003,0.596,0.244,1.087,0.788,1.087c0.535,0,0.798-0.45,0.798-1.1
			C45.845,44.634,45.621,44.13,45.059,44.13z M45.056,45.938c-0.189,0-0.305-0.229-0.305-0.714c0-0.494,0.123-0.721,0.302-0.721
			c0.198,0,0.299,0.246,0.299,0.716C45.352,45.697,45.248,45.938,45.056,45.938z"/>
		<path d="M20.939,36.919l0.18,0.602h0.574l-0.73-2.344h-0.695l-0.713,2.344h0.546l0.167-0.602H20.939z M20.483,36.025
			c0.039-0.135,0.073-0.312,0.108-0.451h0.006c0.036,0.139,0.077,0.312,0.119,0.451l0.146,0.499h-0.518L20.483,36.025z"/>
		<rect x="19.725" y="39.35" width="0.528" height="2.342"/>
		<path d="M21.71,39.954c-0.284,0-0.455,0.163-0.525,0.275h-0.01l-0.024-0.236h-0.458c0.006,0.151,0.014,0.329,0.014,0.542v1.156
			h0.528v-0.979c0-0.049,0.004-0.098,0.018-0.132c0.039-0.099,0.125-0.196,0.271-0.196c0.192,0,0.268,0.148,0.268,0.367v0.94h0.529
			v-1.003C22.319,40.188,22.058,39.954,21.71,39.954z"/>
		<path d="M23.332,39.905c0-0.167,0.073-0.301,0.247-0.301c0.069,0,0.125,0.008,0.171,0.023l0.021-0.408
			c-0.073-0.019-0.164-0.034-0.278-0.034c-0.156,0-0.337,0.045-0.473,0.171c-0.149,0.138-0.212,0.365-0.212,0.569v0.065H22.58v0.391
			h0.227v1.31h0.528v-1.31h0.338v-0.391h-0.341V39.905z"/>
		<path d="M25.344,40.688c0-0.404-0.177-0.736-0.744-0.736c-0.31,0-0.543,0.086-0.661,0.151l0.097,0.341
			c0.112-0.07,0.296-0.129,0.47-0.129c0.26,0,0.309,0.129,0.309,0.222v0.021c-0.601,0-0.998,0.209-0.998,0.651
			c0,0.271,0.205,0.521,0.549,0.521c0.201,0,0.375-0.072,0.486-0.208h0.011l0.031,0.169h0.476c-0.021-0.094-0.028-0.248-0.028-0.41
			v-0.593H25.344z M24.833,41.075c0,0.03-0.004,0.063-0.01,0.09c-0.035,0.108-0.146,0.195-0.275,0.195
			c-0.117,0-0.209-0.065-0.209-0.202c0-0.201,0.215-0.268,0.495-0.268V41.075z"/>
		<path d="M26.77,39.954c-0.286,0-0.456,0.163-0.525,0.275h-0.01l-0.024-0.236h-0.458c0.007,0.151,0.013,0.329,0.013,0.542v1.156
			h0.528v-0.979c0-0.049,0.003-0.098,0.018-0.132c0.039-0.099,0.126-0.196,0.272-0.196c0.191,0,0.267,0.148,0.267,0.367v0.94h0.529
			v-1.003C27.378,40.188,27.117,39.954,26.77,39.954z"/>
		<path d="M28.372,39.534l-0.518,0.144v0.315h-0.226v0.391h0.226v0.695c0,0.238,0.048,0.403,0.146,0.504
			c0.086,0.085,0.229,0.146,0.4,0.146c0.146,0,0.274-0.021,0.34-0.045l-0.003-0.401c-0.048,0.011-0.083,0.015-0.156,0.015
			c-0.156,0-0.208-0.094-0.208-0.299v-0.614h0.379v-0.391h-0.38V39.534z"/>
		<path d="M29.325,39.257c-0.171,0-0.283,0.113-0.283,0.264c0,0.146,0.107,0.265,0.275,0.265c0.177,0,0.284-0.119,0.284-0.265
			C29.599,39.371,29.495,39.257,29.325,39.257z"/>
		<rect x="29.057" y="39.993" width="0.528" height="1.7"/>
		<rect x="30.01" y="39.225" width="0.529" height="2.467"/>
		<path d="M16.494,11.545H4.515v16.32h11.979V11.545z M14.474,18.989l-1.873,1.361c-0.232,0.168-0.348,0.526-0.26,0.799l0.715,2.202
			c0.088,0.273-0.027,0.357-0.259,0.189l-1.874-1.362c-0.232-0.168-0.608-0.168-0.84,0L8.21,23.541
			c-0.232,0.168-0.348,0.084-0.259-0.189l0.714-2.202c0.09-0.273-0.027-0.631-0.259-0.799l-1.873-1.361
			c-0.232-0.169-0.188-0.305,0.099-0.305h2.315c0.287,0,0.592-0.222,0.681-0.495l0.716-2.201c0.089-0.274,0.232-0.274,0.321,0
			l0.716,2.201c0.089,0.273,0.394,0.495,0.68,0.495h2.315C14.662,18.685,14.707,18.82,14.474,18.989z"/>
		<path d="M4.784,46.615h11.979v-16.32H4.784V46.615z M6.903,37.037h2.316c0.286,0,0.591-0.222,0.68-0.495l0.716-2.201
			c0.088-0.273,0.232-0.273,0.322,0l0.715,2.201c0.088,0.273,0.393,0.495,0.68,0.495h2.315c0.287,0,0.331,0.136,0.099,0.305
			l-1.873,1.362c-0.232,0.168-0.349,0.525-0.259,0.799l0.715,2.202c0.088,0.272-0.027,0.356-0.259,0.188l-1.875-1.362
			c-0.232-0.168-0.608-0.168-0.84,0l-1.873,1.36c-0.232,0.169-0.349,0.085-0.259-0.188l0.716-2.202
			c0.089-0.273-0.027-0.63-0.26-0.799l-1.873-1.361C6.572,37.173,6.617,37.037,6.903,37.037z"/>
		<path d="M0,53.212h58.333V5.122H0V53.212z M2.083,7.205H56.25v43.924H2.083V7.205z"/>
	</g>
</g>
</svg>